<?xml version="1.0" encoding="UTF-8"?> <svg xmlns="http://www.w3.org/2000/svg" width="214" height="50" viewBox="0 0 214 50" fill="none"><path d="M18.7974 26.9818C18.0083 27.6345 16.6848 27.9522 15.1886 28.0426C14.7601 26.7229 14.5578 25.3404 14.5903 23.9533C14.5179 19.1569 16.8391 15.8653 20.0489 14.0879V21.7589C20.0489 25.0865 19.7043 26.1837 18.7974 26.9818Z" fill="white"></path><path d="M38.0929 23.9536C38.1235 25.2574 37.946 26.5577 37.5671 27.8056H37.5306C36.3245 26.9806 35.9799 24.7862 35.055 23.6255C34.5381 22.9004 34.1031 22.5013 33.4409 22.7096C32.2168 23.0722 31.0832 26.681 30.2946 27.5514C29.1429 29.0567 27.6912 22.9179 26.9485 22.356L26.8941 22.2836C26.6404 21.9844 26.4861 22.0843 26.4207 22.4649C25.9474 23.0272 27.9714 34.4878 30.8186 30.7522C31.7889 29.646 32.3783 26.8708 33.6586 26.3454C34.6834 26.5267 35.3722 29.0472 36.3065 30.48C31.8273 37.1807 20.2303 37.0269 16.0947 30.0067C17.7902 29.9158 19.8668 29.4444 21.1813 28.447C22.8134 27.1775 23.3847 25.4276 23.3847 22.7347V12.8479C30.1128 11.3427 38.2278 15.0514 38.092 23.9554" fill="white"></path><path d="M0 46.2415C2.17738 46.0782 4.07928 45.4799 5.22288 44.2284C6.52837 42.7066 7.01733 40.638 7.01733 34.3284V12.2946H11.8047V36.1777C11.8047 41.2898 10.9887 44.6094 8.64943 47.0031C6.52837 49.1251 3.04645 49.9961 0.489438 49.9961L0 46.2415ZM12.3486 4.89627C12.3673 5.29167 12.3023 5.68657 12.1578 6.0551C12.0134 6.42364 11.7927 6.7575 11.5102 7.03482C11.2277 7.31214 10.8899 7.52668 10.5187 7.66437C10.1476 7.80207 9.75159 7.85982 9.3566 7.83384C8.96783 7.84481 8.58091 7.77634 8.21952 7.6326C7.85813 7.48886 7.52987 7.27289 7.25483 6.9979C6.9798 6.72291 6.76377 6.39469 6.61998 6.03332C6.47618 5.67195 6.40764 5.28504 6.41855 4.89627C6.40982 4.49616 6.48313 4.09851 6.63397 3.72782C6.78481 3.35714 7.00997 3.02127 7.29558 2.74094C7.58119 2.46061 7.9212 2.24174 8.29463 2.09785C8.66807 1.95395 9.06702 1.88806 9.46689 1.90425C9.85709 1.89609 10.2448 1.96875 10.6055 2.11766C10.9663 2.26657 11.2923 2.48851 11.5631 2.76952C11.834 3.05054 12.0437 3.38455 12.1792 3.75055C12.3147 4.11656 12.3731 4.50664 12.3505 4.89627" fill="white"></path><path d="M64.737 31.4441C64.737 34.1644 64.7915 36.5562 64.9548 38.6252H60.7117L60.4395 34.3272H60.3307C59.4438 35.8413 58.1706 37.0925 56.6413 37.9529C55.1121 38.8133 53.3817 39.2519 51.6273 39.224C47.4926 39.224 42.5391 36.9391 42.5391 27.6905V12.2949H47.3293V26.8739C47.3293 31.8791 48.8525 35.2521 53.204 35.2521C54.0949 35.2535 54.9773 35.0781 55.8 34.7362C56.6227 34.3943 57.3695 33.8927 57.997 33.2603C58.6246 32.6279 59.1205 31.8773 59.4561 31.052C59.7916 30.2266 59.9602 29.343 59.952 28.4521V12.2949H64.737V31.4441Z" fill="white"></path><path d="M77.469 0H72.6816V38.6249H77.469V0Z" fill="white"></path><path d="M88.1854 26.3311C88.2942 32.8041 92.4279 35.47 97.2154 35.47C99.7149 35.5488 102.202 35.0848 104.505 34.1101L105.32 37.5376C103.634 38.2992 100.75 39.1697 96.5631 39.1697C88.4571 39.1697 83.6147 33.8389 83.6147 25.8961C83.6147 17.9534 88.2933 11.6958 95.9643 11.6958C104.559 11.6958 106.844 19.257 106.844 24.0974C106.836 24.8436 106.781 25.5884 106.681 26.3278L88.1854 26.3311ZM102.221 22.9037C102.276 19.8572 100.969 15.1238 95.5842 15.1238C90.7424 15.1238 88.6204 19.585 88.2398 22.9037H102.221Z" fill="white"></path><path d="M118.923 38.6247L109.623 1.9585H114.626L118.978 20.5093C120.067 25.0795 121.045 29.6492 121.699 33.1846H121.807C122.405 29.5398 123.548 25.1879 124.798 20.4549L129.695 1.9585H134.645L139.107 20.5638C140.14 24.9162 141.119 29.2686 141.663 33.1301H141.772C142.533 29.1043 143.568 25.0241 144.709 20.4549L149.552 1.9585H154.393L144.002 38.6247H139.051L134.426 19.53C133.409 15.5881 132.61 11.593 132.034 7.5629H131.925C131.197 11.6003 130.253 15.5958 129.096 19.5319L123.873 38.6266L118.923 38.6247Z" fill="white"></path><path d="M163.264 4.89621C163.318 6.5283 162.121 7.83379 160.217 7.83379C159.832 7.83884 159.45 7.7659 159.095 7.61936C158.739 7.47282 158.417 7.25572 158.147 6.98118C157.878 6.70663 157.667 6.38033 157.527 6.02198C157.387 5.66363 157.322 5.28067 157.334 4.89621C157.324 4.5005 157.394 4.1068 157.54 3.73912C157.687 3.37143 157.907 3.03745 158.187 2.75752C158.467 2.47759 158.801 2.25757 159.168 2.11087C159.536 1.96416 159.93 1.89385 160.326 1.9042C160.72 1.88994 161.113 1.958 161.479 2.10403C161.846 2.25007 162.178 2.47087 162.454 2.75237C162.731 3.03387 162.946 3.36989 163.085 3.73901C163.224 4.10812 163.285 4.50223 163.264 4.89621ZM157.932 12.2946H162.719V38.6249H157.932V12.2946Z" fill="white"></path><path d="M170.007 33.7292C171.903 34.9151 174.081 35.5726 176.317 35.6335C179.799 35.6335 181.432 33.8925 181.432 31.7166C181.432 29.4317 180.072 28.1802 176.535 26.8747C171.801 25.1891 169.572 22.5777 169.572 19.4224C169.572 15.1789 172.999 11.6969 178.656 11.6969C180.919 11.6746 183.149 12.2368 185.13 13.329L183.935 16.8091C182.316 15.8113 180.451 15.2839 178.549 15.2858C175.721 15.2858 174.143 16.9179 174.143 18.8766C174.143 21.054 175.721 22.0319 179.148 23.3379C183.718 25.0779 186.058 27.3613 186.058 31.2801C186.058 35.9042 182.468 39.1689 176.213 39.1689C173.633 39.2161 171.085 38.5977 168.814 37.3735L170.007 33.7292Z" fill="white"></path><path d="M194.87 26.3311C194.98 32.8041 199.114 35.47 203.9 35.47C206.399 35.5489 208.886 35.0849 211.189 34.1101L212.005 37.5376C210.32 38.2992 207.435 39.1697 203.248 39.1697C195.141 39.1697 190.299 33.8389 190.299 25.8961C190.299 17.9534 194.978 11.6958 202.648 11.6958C211.244 11.6958 213.529 19.257 213.529 24.0974C213.52 24.8436 213.465 25.5885 213.364 26.3278L194.87 26.3311ZM208.906 22.9037C208.961 19.8572 207.654 15.1238 202.27 15.1238C197.428 15.1238 195.306 19.585 194.924 22.9037H208.906Z" fill="white"></path></svg> 