<?xml version="1.0" encoding="UTF-8"?> <svg xmlns="http://www.w3.org/2000/svg" width="180" height="43" viewBox="0 0 180 43" fill="none"><mask id="mask0_1610_350" style="mask-type:luminance" maskUnits="userSpaceOnUse" x="0" y="0" width="180" height="43"><path d="M180 0.427734H0V42.5727H180V0.427734Z" fill="white"></path></mask><g mask="url(#mask0_1610_350)"><path d="M15.8457 23.1729C15.1805 23.7232 14.0649 23.9909 12.8036 24.0671C12.4424 22.9547 12.2719 21.7893 12.2992 20.62C12.2382 16.5768 14.195 13.802 16.9007 12.3037V18.7702C16.9007 21.5753 16.6102 22.5002 15.8457 23.1729Z" fill="#CEAB0E"></path><path d="M32.1113 20.6199C32.137 21.719 31.9874 22.8151 31.668 23.8671H31.6372C30.6206 23.1716 30.3301 21.3218 29.5504 20.3434C29.1147 19.7321 28.748 19.3957 28.1897 19.5713C27.1579 19.8769 26.2022 22.919 25.5375 23.6528C24.5667 24.9217 23.3429 19.7469 22.7168 19.2732L22.6709 19.2122C22.4571 18.96 22.327 19.0442 22.2719 19.365C21.8729 19.839 23.5791 29.5 25.9792 26.351C26.7972 25.4185 27.294 23.0791 28.3733 22.6361C29.2372 22.789 29.8177 24.9137 30.6054 26.1216C26.8295 31.77 17.0536 31.6404 13.5674 25.7225C14.9967 25.6459 16.7471 25.2485 17.8552 24.4078C19.231 23.3376 19.7126 21.8625 19.7126 19.5924V11.2582C25.3843 9.98931 32.225 13.1156 32.1105 20.6215" fill="#CEAB0E"></path><path d="M0 39.4081C1.83548 39.2705 3.43873 38.7661 4.40275 37.7111C5.50324 36.4283 5.91542 34.6846 5.91542 29.3657V10.7918H9.95108V30.9246C9.95108 35.234 9.26317 38.0323 7.29123 40.0501C5.50324 41.8389 2.56807 42.5731 0.412583 42.5731L0 39.4081ZM10.4095 4.55521C10.4253 4.88853 10.3705 5.22141 10.2487 5.53208C10.1269 5.84274 9.94088 6.12418 9.70278 6.35796C9.46467 6.59173 9.17986 6.77258 8.86702 6.88865C8.55417 7.00472 8.22033 7.05341 7.88736 7.03151C7.55964 7.04076 7.23347 6.98303 6.92883 6.86187C6.62419 6.7407 6.34747 6.55864 6.11563 6.32683C5.88378 6.09502 5.70168 5.81834 5.58046 5.51372C5.45925 5.20909 5.40147 4.88294 5.41067 4.55521C5.40331 4.21793 5.46511 3.88272 5.59226 3.57025C5.71941 3.25777 5.90922 2.97464 6.14998 2.73833C6.39074 2.50202 6.67736 2.31752 6.99215 2.19622C7.30695 2.07492 7.64325 2.01938 7.98033 2.03303C8.30926 2.02615 8.63605 2.0874 8.94016 2.21292C9.24426 2.33845 9.51911 2.52554 9.74742 2.76243C9.97572 2.99931 10.1525 3.28088 10.2668 3.58941C10.381 3.89794 10.4301 4.22677 10.4111 4.55521" fill="#CEAB0E"></path><path d="M54.5717 26.934C54.5717 29.2271 54.6175 31.2433 54.7552 32.9874H51.1784L50.949 29.3644H50.8572C50.1096 30.6407 49.0363 31.6954 47.7472 32.4207C46.4581 33.146 44.9994 33.5158 43.5205 33.4922C40.0351 33.4922 35.8594 31.5662 35.8594 23.7698V10.7917H39.8974V23.0815C39.8974 27.3007 41.1815 30.1441 44.8496 30.1441C45.6007 30.1452 46.3445 29.9974 47.038 29.7092C47.7315 29.4209 48.361 28.9981 48.89 28.465C49.419 27.9319 49.8371 27.2991 50.1199 26.6034C50.4028 25.9077 50.5449 25.1628 50.538 24.4118V10.7917H54.5717V26.934Z" fill="#CEAB0E"></path><path d="M65.3042 0.427734H61.2686V32.9875H65.3042V0.427734Z" fill="#CEAB0E"></path><path d="M74.3378 22.6243C74.4295 28.0809 77.9142 30.3281 81.9498 30.3281C84.0569 30.3945 86.1533 30.0034 88.0947 29.1817L88.7818 32.071C87.3609 32.713 84.9293 33.4468 81.4 33.4468C74.5668 33.4468 70.4849 28.9531 70.4849 22.2576C70.4849 15.5621 74.4287 10.2871 80.8952 10.2871C88.1406 10.2871 90.0666 16.661 90.0666 20.7413C90.0596 21.3703 90.0136 21.9982 89.9289 22.6215L74.3378 22.6243ZM86.169 19.735C86.2157 17.167 85.1144 13.1768 80.5748 13.1768C76.4933 13.1768 74.7045 16.9375 74.3837 19.735H86.169Z" fill="#CEAB0E"></path><path d="M100.249 32.9875L92.4092 2.07886H96.6268L100.296 17.7167C101.213 21.5692 102.038 25.4213 102.589 28.4016H102.681C103.184 25.3292 104.148 21.6606 105.202 17.6708L109.329 2.07886H113.503L117.264 17.7626C118.134 21.4316 118.96 25.1005 119.418 28.3557H119.51C120.152 24.9621 121.024 21.5225 121.986 17.6708L126.068 2.07886H130.15L121.39 32.9875H117.217L113.318 16.8912C112.46 13.5683 111.787 10.2005 111.301 6.80321H111.21C110.596 10.2067 109.8 13.5747 108.825 16.8927L104.422 32.9891L100.249 32.9875Z" fill="#4D3C00"></path><path d="M137.627 4.55524C137.672 5.93105 136.664 7.03154 135.058 7.03154C134.734 7.0358 134.412 6.97431 134.112 6.85078C133.813 6.72725 133.541 6.54425 133.314 6.31281C133.087 6.08138 132.909 5.80632 132.791 5.50424C132.673 5.20216 132.618 4.87933 132.628 4.55524C132.619 4.22167 132.679 3.88979 132.802 3.57985C132.926 3.2699 133.111 2.98836 133.347 2.75239C133.583 2.51641 133.865 2.33094 134.175 2.20727C134.485 2.08361 134.816 2.02433 135.15 2.03306C135.482 2.02104 135.814 2.07841 136.123 2.20151C136.432 2.32462 136.712 2.51075 136.945 2.74805C137.178 2.98534 137.359 3.2686 137.476 3.57975C137.594 3.8909 137.645 4.22313 137.627 4.55524ZM133.133 10.7919H137.167V32.9876H133.133V10.7919Z" fill="#4D3C00"></path><path d="M143.311 28.8605C144.909 29.8602 146.746 30.4144 148.63 30.4658C151.566 30.4658 152.942 28.9982 152.942 27.1639C152.942 25.2378 151.796 24.1828 148.814 23.0824C144.824 21.6615 142.944 19.4601 142.944 16.8002C142.944 13.2231 145.834 10.2879 150.602 10.2879C152.51 10.2691 154.389 10.743 156.06 11.6637L155.053 14.5973C153.688 13.7562 152.116 13.3116 150.512 13.3132C148.128 13.3132 146.798 14.689 146.798 16.3402C146.798 18.1757 148.128 19 151.017 20.1009C154.869 21.5677 156.842 23.4925 156.842 26.796C156.842 30.694 153.815 33.446 148.543 33.446C146.368 33.4858 144.22 32.9645 142.306 31.9325L143.311 28.8605Z" fill="#4D3C00"></path><path d="M164.27 22.6243C164.362 28.0809 167.848 30.3281 171.882 30.3281C173.989 30.3946 176.085 30.0035 178.027 29.1817L178.714 32.071C177.294 32.713 174.862 33.4468 171.332 33.4468C164.498 33.4468 160.417 28.9531 160.417 22.2576C160.417 15.5621 164.361 10.2871 170.827 10.2871C178.073 10.2871 179.999 16.661 179.999 20.7413C179.992 21.3703 179.945 21.9983 179.86 22.6215L164.27 22.6243ZM176.102 19.735C176.149 17.167 175.047 13.1768 170.508 13.1768C166.426 13.1768 164.637 16.9375 164.316 19.735H176.102Z" fill="#4D3C00"></path></g></svg> 